<svg xmlns="http://www.w3.org/2000/svg" xmlns:xlink="http://www.w3.org/1999/xlink" xmlns:lucid="lucid" width="1760" height="1360"><g transform="translate(0 0)" lucid:page-tab-id="0_0"><path d="M0 0h1760v1360H0z" fill="#fff"/><path d="M340 288c0-4.42 3.58-8 8-8h144c4.42 0 8 3.58 8 8v104c0 4.42-3.58 8-8 8H348c-4.42 0-8-3.58-8-8z" stroke="#333" fill="#fff"/><use xlink:href="#a" transform="matrix(1,0,0,1,352,292) translate(36.55 51.6)"/><path d="M1000 288c0-4.42 3.58-8 8-8h144c4.42 0 8 3.58 8 8v104c0 4.42-3.58 8-8 8h-144c-4.42 0-8-3.58-8-8z" stroke="#333" fill="#fff"/><use xlink:href="#b" transform="matrix(1,0,0,1,1012,292) translate(41.55 51.6)"/><path d="M680 568c0-4.42 3.58-8 8-8h144c4.42 0 8 3.58 8 8v104c0 4.42-3.58 8-8 8H688c-4.42 0-8-3.58-8-8z" stroke="#333" fill="#fff"/><use xlink:href="#c" transform="matrix(1,0,0,1,692,572) translate(15.599999999999994 51.6)"/><path d="M680 77.06c0-4.42 3.58-8 8-8h144c4.42 0 8 3.58 8 8v104c0 4.42-3.58 8-8 8H688c-4.42 0-8-3.58-8-8z" stroke="#333" fill="#fff"/><use xlink:href="#d" transform="matrix(1,0,0,1,692,81.05873426089664) translate(49.05 51.6)"/><path d="M80 288c0-4.42 3.58-8 8-8h144c4.42 0 8 3.58 8 8v104c0 4.42-3.58 8-8 8H88c-4.42 0-8-3.58-8-8z" stroke="#333" fill="#fff"/><path d="M96 280v120m128-120v120" stroke="#333" fill="none"/><use xlink:href="#e" transform="matrix(1,0,0,1,105,285) translate(46.025 37)"/><use xlink:href="#f" transform="matrix(1,0,0,1,105,285) translate(31.049999999999997 58.6)"/><use xlink:href="#g" transform="matrix(1,0,0,1,105,285) translate(35 80.20000000000002)"/><path d="M960 77.06c0-4.42 3.58-8 8-8h144c4.42 0 8 3.58 8 8v104c0 4.42-3.58 8-8 8H968c-4.42 0-8-3.58-8-8z" stroke="#333" fill="#fff"/><path d="M976 69.06v120m128-120v120" stroke="#333" fill="none"/><use xlink:href="#h" transform="matrix(1,0,0,1,985,74.05873426089664) translate(32.574999999999996 37)"/><use xlink:href="#f" transform="matrix(1,0,0,1,985,74.05873426089664) translate(31.049999999999997 58.6)"/><use xlink:href="#i" transform="matrix(1,0,0,1,985,74.05873426089664) translate(15.549999999999997 80.20000000000002)"/><path d="M959 129.06H856.88" stroke="#333" fill="none"/><path d="M959.5 129.56h-.5v-1h.5" fill="#333"/><path d="M842.12 129.06l14.26-4.64v9.27z" stroke="#333" fill="#333"/><path d="M241 340h82.12" stroke="#333" fill="none"/><path d="M241 340.5h-.5v-1h.5" fill="#333"/><path d="M337.88 340l-14.26 4.64v-9.28z" stroke="#333" fill="#333"/><path d="M1280 288c0-4.42 3.58-8 8-8h144c4.42 0 8 3.58 8 8v104c0 4.42-3.58 8-8 8h-144c-4.42 0-8-3.58-8-8z" stroke="#333" fill="#fff"/><path d="M1296 280v120m128-120v120" stroke="#333" fill="none"/><use xlink:href="#e" transform="matrix(1,0,0,1,1305,285) translate(46.025 37)"/><use xlink:href="#f" transform="matrix(1,0,0,1,1305,285) translate(31.049999999999997 58.6)"/><use xlink:href="#g" transform="matrix(1,0,0,1,1305,285) translate(35 80.20000000000002)"/><path d="M1279 340h-102.12" stroke="#333" fill="none"/><path d="M1279.5 340.5h-.5v-1h.5" fill="#333"/><path d="M1162.12 340l14.26-4.64v9.28z" stroke="#333" fill="#333"/><path d="M680 788c0-4.42 3.58-8 8-8h144c4.42 0 8 3.58 8 8v104c0 4.42-3.58 8-8 8H688c-4.42 0-8-3.58-8-8z" stroke="#333" fill="#fff"/><path d="M696 780v120m128-120v120" stroke="#333" fill="none"/><use xlink:href="#e" transform="matrix(1,0,0,1,705,785) translate(46.025 37)"/><use xlink:href="#f" transform="matrix(1,0,0,1,705,785) translate(31.049999999999997 58.6)"/><use xlink:href="#g" transform="matrix(1,0,0,1,705,785) translate(35 80.20000000000002)"/><path d="M760 779v-82.12" stroke="#333" fill="none"/><path d="M760.5 779.5h-1v-.5h1" fill="#333"/><path d="M760 682.12l4.64 14.26h-9.28z" stroke="#333" fill="#333"/><path d="M1073.6 564.8c3.53-2.65 9.27-2.65 12.8 0l67.2 50.4c3.53 2.65 3.53 6.95 0 9.6l-67.2 50.4c-3.53 2.65-9.27 2.65-12.8 0l-67.2-50.4c-3.53-2.65-3.53-6.95 0-9.6z" stroke="#333" fill="#fff"/><use xlink:href="#j" transform="matrix(1,0,0,1,1005,565) translate(33.525 58.6)"/><use xlink:href="#k" transform="matrix(1,0,0,1,1005,565) translate(98.525 58.6)"/><path d="M1080.5 561.9h-1v-69.64h1m0-21.6h-1v-53.78h1M1080.5 562.42h-1v-.52h1M1084.64 416.38h-9.28l4.64-14.26z" fill="#333"/><path d="M1085.32 416.88h-10.64l5.32-16.38m-3.95 15.38h7.9l-3.95-12.14" fill="#333"/><use xlink:href="#l" transform="matrix(1,0,0,1,1058.025,470.6568505109929) translate(0.004999999999999005 14.4)"/><path d="M904.93 620.5h-48.05v-1h48.05m97.93 1h-63.93v-1h63.93" fill="#333"/><path d="M1003.34 620.5h-.5v-1h.54M856.38 624.64L842.12 620l14.26-4.64z" fill="#333"/><path d="M856.88 625.32L840.5 620l16.38-5.32M843.74 620l12.14 3.95v-7.9" fill="#333"/><use xlink:href="#m" transform="matrix(1,0,0,1,904.9295492973624,609.2) translate(0.004999999999999005 14.4)"/><path d="M413.6 564.8c3.53-2.65 9.27-2.65 12.8 0l67.2 50.4c3.53 2.65 3.53 6.95 0 9.6l-67.2 50.4c-3.53 2.65-9.27 2.65-12.8 0l-67.2-50.4c-3.53-2.65-3.53-6.95 0-9.6z" stroke="#333" fill="#fff"/><use xlink:href="#n" transform="matrix(1,0,0,1,345,565) translate(34.05 58.6)"/><use xlink:href="#k" transform="matrix(1,0,0,1,345,565) translate(98 58.6)"/><path d="M420.5 561.9h-1v-69.64h1m0-21.6h-1v-53.78h1M420.5 562.42h-1v-.52h1M424.64 416.38h-9.28l4.64-14.26z" fill="#333"/><path d="M425.32 416.88h-10.64L420 400.5m-3.95 15.38h7.9L420 403.74" fill="#333"/><use xlink:href="#m" transform="matrix(1,0,0,1,403,470.6568505109929) translate(0.004999999999999005 14.4)"/><path d="M566.1 620.5h-68.96v-1h68.96m97.02 1h-53.07v-1h53.07" fill="#333"/><path d="M497.15 620.5h-.53l.04-1h.5M677.88 620l-14.26 4.64v-9.28z" fill="#333"/><path d="M679.5 620l-16.38 5.32v-10.64m1 9.27l12.14-3.95-12.14-3.95" fill="#333"/><use xlink:href="#l" transform="matrix(1,0,0,1,566.0954507026375,609.2) translate(0.004999999999999005 14.4)"/><path d="M753.6 284.8c3.53-2.65 9.27-2.65 12.8 0l67.2 50.4c3.53 2.65 3.53 6.95 0 9.6l-67.2 50.4c-3.53 2.65-9.27 2.65-12.8 0l-67.2-50.4c-3.53-2.65-3.53-6.95 0-9.6z" stroke="#333" fill="#fff"/><use xlink:href="#o" transform="matrix(1,0,0,1,685,285) translate(42.574999999999996 58.6)"/><path d="M760.5 281.9h-1v-35.1h1m0-21.6h-1v-19.26h1M760.5 282.42h-1v-.52h1M764.64 205.44h-9.28l4.64-14.26z" fill="#333"/><path d="M765.32 205.94h-10.64l5.32-16.38m-3.95 15.38h7.9L760 192.8" fill="#333"/><use xlink:href="#l" transform="matrix(1,0,0,1,738.025,225.18621764144123) translate(0.004999999999999005 14.4)"/><path d="M896.1 340.5h-58.96v-1h58.96m87.02 1h-43.07v-1h43.07" fill="#333"/><path d="M837.15 340.5h-.53l.04-1h.5M997.88 340l-14.26 4.64v-9.28z" fill="#333"/><path d="M999.5 340l-16.38 5.32v-10.64m1 9.27l12.14-3.95-12.14-3.95" fill="#333"/><use xlink:href="#l" transform="matrix(1,0,0,1,896.0954507026375,329.2) translate(0.004999999999999005 14.4)"/><path d="M413.6 87.86c3.53-2.65 9.27-2.65 12.8 0l67.2 50.4c3.53 2.65 3.53 6.95 0 9.6l-67.2 50.4c-3.53 2.65-9.27 2.65-12.8 0l-67.2-50.4c-3.53-2.65-3.53-6.95 0-9.6z" stroke="#333" fill="#fff"/><use xlink:href="#p" transform="matrix(1,0,0,1,345,88.06397682292233) translate(42.525 58.6)"/><path d="M420.5 263.12h-1v-12.24h1m0-21.6h-1v-28.13h1" fill="#333"/><path d="M420.5 200.66v.5h-1v-.52M420 277.88l-4.64-14.26h9.28z" fill="#333"/><path d="M420 279.5l-5.32-16.38h10.64m-9.27 1l3.95 12.14 3.95-12.14" fill="#333"/><g><use xlink:href="#m" transform="matrix(1,0,0,1,403,229.27513790046825) translate(0.004999999999999005 14.4)"/></g><path d="M591.24 142.98l3 1.25 2.6 2 2 2.6 1.24 3 .42 3.2v273.44l.4 3 1.14 2.77 1.83 2.4 2.4 1.82 2.75 1.14 3 .4h25.6v1h-25.65l-3.2-.42-3-1.24-2.6-2-2-2.6-1.25-3-.42-3.2V155.1l-.4-3.02-1.14-2.75-1.83-2.4-2.4-1.83-2.75-1.14-3-.4h-90.84v-1h90.9m492.46 285.97l-.42 3.2-1.24 3-2 2.6-2.6 2-3 1.25-3.2.42H681.57v-1h386.4l3-.4 2.76-1.14 2.4-1.83 1.82-2.4 1.14-2.75.4-3v-11.6h1" fill="#333"/><path d="M497.15 143.56h-.53l.04-1h.5M1084.64 416.38h-9.28l4.64-14.26z" fill="#333"/><path d="M1085.32 416.88h-10.64l5.32-16.38m-3.95 15.38h7.9l-3.95-12.14" fill="#333"/><g><use xlink:href="#l" transform="matrix(1,0,0,1,637.6274391140987,429.7) translate(0.004999999999999005 14.4)"/></g><defs><path fill="#333" d="M212-179c-10-28-35-45-73-45-59 0-87 40-87 99 0 60 29 101 89 101 43 0 62-24 78-52l27 14C228-24 195 4 139 4 59 4 22-46 18-125c-6-104 99-153 187-111 19 9 31 26 39 46" id="q"/><path fill="#333" d="M100-194c62-1 85 37 85 99 1 63-27 99-86 99S16-35 15-95c0-66 28-99 85-99zM99-20c44 1 53-31 53-75 0-43-8-75-51-75s-53 32-53 75 10 74 51 75" id="r"/><path fill="#333" d="M84 4C-5 8 30-112 23-190h32v120c0 31 7 50 39 49 72-2 45-101 50-169h31l1 190h-30c-1-10 1-25-2-33-11 22-28 36-60 37" id="s"/><path fill="#333" d="M117-194c89-4 53 116 60 194h-32v-121c0-31-8-49-39-48C34-167 62-67 57 0H25l-1-190h30c1 10-1 24 2 32 11-22 29-35 61-36" id="t"/><path fill="#333" d="M59-47c-2 24 18 29 38 22v24C64 9 27 4 27-40v-127H5v-23h24l9-43h21v43h35v23H59v120" id="u"/><path fill="#333" d="M114-163C36-179 61-72 57 0H25l-1-190h30c1 12-1 29 2 39 6-27 23-49 58-41v29" id="v"/><path fill="#333" d="M179-190L93 31C79 59 56 82 12 73V49c39 6 53-20 64-50L1-190h34L92-34l54-156h33" id="w"/><g id="a"><use transform="matrix(0.05,0,0,0.05,0,0)" xlink:href="#q"/><use transform="matrix(0.05,0,0,0.05,12.950000000000001,0)" xlink:href="#r"/><use transform="matrix(0.05,0,0,0.05,22.950000000000003,0)" xlink:href="#s"/><use transform="matrix(0.05,0,0,0.05,32.95,0)" xlink:href="#t"/><use transform="matrix(0.05,0,0,0.05,42.95,0)" xlink:href="#u"/><use transform="matrix(0.05,0,0,0.05,47.95,0)" xlink:href="#v"/><use transform="matrix(0.05,0,0,0.05,53.900000000000006,0)" xlink:href="#w"/></g><path fill="#333" d="M127-220V0H93v-220H8v-28h204v28h-85" id="x"/><path fill="#333" d="M100-194c63 0 86 42 84 106H49c0 40 14 67 53 68 26 1 43-12 49-29l28 8c-11 28-37 45-77 45C44 4 14-33 15-96c1-61 26-98 85-98zm52 81c6-60-76-77-97-28-3 7-6 17-6 28h103" id="y"/><path fill="#333" d="M141-36C126-15 110 5 73 4 37 3 15-17 15-53c-1-64 63-63 125-63 3-35-9-54-41-54-24 1-41 7-42 31l-33-3c5-37 33-52 76-52 45 0 72 20 72 64v82c-1 20 7 32 28 27v20c-31 9-61-2-59-35zM48-53c0 20 12 33 32 33 41-3 63-29 60-74-43 2-92-5-92 41" id="z"/><path fill="#333" d="M210-169c-67 3-38 105-44 169h-31v-121c0-29-5-50-35-48C34-165 62-65 56 0H25l-1-190h30c1 10-1 24 2 32 10-44 99-50 107 0 11-21 27-35 58-36 85-2 47 119 55 194h-31v-121c0-29-5-49-35-48" id="A"/><path fill="#333" d="M135-143c-3-34-86-38-87 0 15 53 115 12 119 90S17 21 10-45l28-5c4 36 97 45 98 0-10-56-113-15-118-90-4-57 82-63 122-42 12 7 21 19 24 35" id="B"/><g id="b"><use transform="matrix(0.05,0,0,0.05,0,0)" xlink:href="#x"/><use transform="matrix(0.05,0,0,0.05,8.950000000000001,0)" xlink:href="#y"/><use transform="matrix(0.05,0,0,0.05,18.950000000000003,0)" xlink:href="#z"/><use transform="matrix(0.05,0,0,0.05,28.950000000000003,0)" xlink:href="#A"/><use transform="matrix(0.05,0,0,0.05,43.900000000000006,0)" xlink:href="#B"/></g><path fill="#333" d="M115-194c55 1 70 41 70 98S169 2 115 4C84 4 66-9 55-30l1 105H24l-1-265h31l2 30c10-21 28-34 59-34zm-8 174c40 0 45-34 45-75s-6-73-45-74c-42 0-51 32-51 76 0 43 10 73 51 73" id="C"/><path fill="#333" d="M24-231v-30h32v30H24zM24 0v-190h32V0H24" id="D"/><g id="c"><use transform="matrix(0.05,0,0,0.05,0,0)" xlink:href="#q"/><use transform="matrix(0.05,0,0,0.05,12.950000000000001,0)" xlink:href="#r"/><use transform="matrix(0.05,0,0,0.05,22.950000000000003,0)" xlink:href="#A"/><use transform="matrix(0.05,0,0,0.05,37.900000000000006,0)" xlink:href="#C"/><use transform="matrix(0.05,0,0,0.05,47.900000000000006,0)" xlink:href="#y"/><use transform="matrix(0.05,0,0,0.05,57.900000000000006,0)" xlink:href="#u"/><use transform="matrix(0.05,0,0,0.05,62.900000000000006,0)" xlink:href="#D"/><use transform="matrix(0.05,0,0,0.05,66.85000000000001,0)" xlink:href="#u"/><use transform="matrix(0.05,0,0,0.05,71.85000000000001,0)" xlink:href="#D"/><use transform="matrix(0.05,0,0,0.05,75.80000000000001,0)" xlink:href="#r"/><use transform="matrix(0.05,0,0,0.05,85.80000000000001,0)" xlink:href="#t"/><use transform="matrix(0.05,0,0,0.05,95.80000000000001,0)" xlink:href="#B"/></g><path fill="#333" d="M232-93c-1 65-40 97-104 97C67 4 28-28 28-90v-158h33c8 89-33 224 67 224 102 0 64-133 71-224h33v155" id="E"/><g id="d"><use transform="matrix(0.05,0,0,0.05,0,0)" xlink:href="#E"/><use transform="matrix(0.05,0,0,0.05,12.950000000000001,0)" xlink:href="#B"/><use transform="matrix(0.05,0,0,0.05,21.950000000000003,0)" xlink:href="#y"/><use transform="matrix(0.05,0,0,0.05,31.950000000000003,0)" xlink:href="#v"/></g><path fill="#333" d="M33 0v-248h34V0H33" id="F"/><path fill="#333" d="M30-248c118-7 216 8 213 122C240-48 200 0 122 0H30v-248zM63-27c89 8 146-16 146-99s-60-101-146-95v194" id="G"/><g id="e"><use transform="matrix(0.05,0,0,0.05,0,0)" xlink:href="#F"/><use transform="matrix(0.05,0,0,0.05,5,0)" xlink:href="#G"/></g><path fill="#333" d="M190 0L58-211 59 0H30v-248h39L202-35l-2-213h31V0h-41" id="H"/><g id="f"><use transform="matrix(0.05,0,0,0.05,0,0)" xlink:href="#H"/><use transform="matrix(0.05,0,0,0.05,12.950000000000001,0)" xlink:href="#z"/><use transform="matrix(0.05,0,0,0.05,22.950000000000003,0)" xlink:href="#A"/><use transform="matrix(0.05,0,0,0.05,37.900000000000006,0)" xlink:href="#y"/></g><path fill="#333" d="M30 0v-248h33v221h125V0H30" id="I"/><path fill="#333" d="M177-190C167-65 218 103 67 71c-23-6-38-20-44-43l32-5c15 47 100 32 89-28v-30C133-14 115 1 83 1 29 1 15-40 15-95c0-56 16-97 71-98 29-1 48 16 59 35 1-10 0-23 2-32h30zM94-22c36 0 50-32 50-73 0-42-14-75-50-75-39 0-46 34-46 75s6 73 46 73" id="J"/><g id="g"><use transform="matrix(0.05,0,0,0.05,0,0)" xlink:href="#I"/><use transform="matrix(0.05,0,0,0.05,10,0)" xlink:href="#r"/><use transform="matrix(0.05,0,0,0.05,20,0)" xlink:href="#J"/><use transform="matrix(0.05,0,0,0.05,30,0)" xlink:href="#r"/></g><path fill="#333" d="M30 0v-248h187v28H63v79h144v27H63v87h162V0H30" id="K"/><path fill="#333" d="M24 0v-261h32V0H24" id="L"/><g id="h"><use transform="matrix(0.05,0,0,0.05,0,0)" xlink:href="#K"/><use transform="matrix(0.05,0,0,0.05,12,0)" xlink:href="#A"/><use transform="matrix(0.05,0,0,0.05,26.950000000000003,0)" xlink:href="#z"/><use transform="matrix(0.05,0,0,0.05,36.95,0)" xlink:href="#D"/><use transform="matrix(0.05,0,0,0.05,40.900000000000006,0)" xlink:href="#L"/></g><path fill="#333" d="M30-248c87 1 191-15 191 75 0 78-77 80-158 76V0H30v-248zm33 125c57 0 124 11 124-50 0-59-68-47-124-48v98" id="M"/><path fill="#333" d="M206 0h-36l-40-164L89 0H53L-1-190h32L70-26l43-164h34l41 164 42-164h31" id="N"/><path fill="#333" d="M85-194c31 0 48 13 60 33l-1-100h32l1 261h-30c-2-10 0-23-3-31C134-8 116 4 85 4 32 4 16-35 15-94c0-66 23-100 70-100zm9 24c-40 0-46 34-46 75 0 40 6 74 45 74 42 0 51-32 51-76 0-42-9-74-50-73" id="O"/><g id="i"><use transform="matrix(0.05,0,0,0.05,0,0)" xlink:href="#M"/><use transform="matrix(0.05,0,0,0.05,12,0)" xlink:href="#z"/><use transform="matrix(0.05,0,0,0.05,22,0)" xlink:href="#B"/><use transform="matrix(0.05,0,0,0.05,31,0)" xlink:href="#B"/><use transform="matrix(0.05,0,0,0.05,40,0)" xlink:href="#N"/><use transform="matrix(0.05,0,0,0.05,52.95,0)" xlink:href="#r"/><use transform="matrix(0.05,0,0,0.05,62.95,0)" xlink:href="#v"/><use transform="matrix(0.05,0,0,0.05,68.9,0)" xlink:href="#O"/></g><g id="j"><use transform="matrix(0.05,0,0,0.05,0,0)" xlink:href="#I"/><use transform="matrix(0.05,0,0,0.05,10,0)" xlink:href="#y"/><use transform="matrix(0.05,0,0,0.05,20,0)" xlink:href="#z"/><use transform="matrix(0.05,0,0,0.05,30,0)" xlink:href="#J"/><use transform="matrix(0.05,0,0,0.05,40,0)" xlink:href="#s"/><use transform="matrix(0.05,0,0,0.05,50,0)" xlink:href="#y"/></g><g id="k"><use transform="matrix(0.05,0,0,0.05,0,0)" xlink:href="#F"/><use transform="matrix(0.05,0,0,0.05,5,0)" xlink:href="#G"/></g><path fill="#333" d="M240 0l2-218c-23 76-54 145-80 218h-23L58-218 59 0H30v-248h44l77 211c21-75 51-140 76-211h43V0h-30" id="P"/><g id="l"><use transform="matrix(0.05,0,0,0.05,0,0)" xlink:href="#P"/><use transform="matrix(0.05,0,0,0.05,14.950000000000001,0)" xlink:href="#z"/><use transform="matrix(0.05,0,0,0.05,24.950000000000003,0)" xlink:href="#t"/><use transform="matrix(0.05,0,0,0.05,34.95,0)" xlink:href="#w"/></g><path fill="#333" d="M140-251c81 0 123 46 123 126C263-46 219 4 140 4 59 4 17-45 17-125s42-126 123-126zm0 227c63 0 89-41 89-101s-29-99-89-99c-61 0-89 39-89 99S79-25 140-24" id="Q"/><g id="m"><use transform="matrix(0.05,0,0,0.05,0,0)" xlink:href="#Q"/><use transform="matrix(0.05,0,0,0.05,14,0)" xlink:href="#t"/><use transform="matrix(0.05,0,0,0.05,24,0)" xlink:href="#y"/></g><path fill="#333" d="M96-169c-40 0-48 33-48 73s9 75 48 75c24 0 41-14 43-38l32 2c-6 37-31 61-74 61-59 0-76-41-82-99-10-93 101-131 147-64 4 7 5 14 7 22l-32 3c-4-21-16-35-41-35" id="R"/><g id="n"><use transform="matrix(0.05,0,0,0.05,0,0)" xlink:href="#R"/><use transform="matrix(0.05,0,0,0.05,9,0)" xlink:href="#r"/><use transform="matrix(0.05,0,0,0.05,19,0)" xlink:href="#s"/><use transform="matrix(0.05,0,0,0.05,29,0)" xlink:href="#t"/><use transform="matrix(0.05,0,0,0.05,39,0)" xlink:href="#u"/><use transform="matrix(0.05,0,0,0.05,44,0)" xlink:href="#v"/><use transform="matrix(0.05,0,0,0.05,49.95,0)" xlink:href="#w"/></g><path fill="#333" d="M63-220v92h138v28H63V0H30v-248h175v28H63" id="S"/><path fill="#333" d="M108 0H70L1-190h34L89-25l56-165h34" id="T"/><g id="o"><use transform="matrix(0.05,0,0,0.05,0,0)" xlink:href="#S"/><use transform="matrix(0.05,0,0,0.05,10.950000000000001,0)" xlink:href="#z"/><use transform="matrix(0.05,0,0,0.05,20.950000000000003,0)" xlink:href="#T"/><use transform="matrix(0.05,0,0,0.05,29.950000000000003,0)" xlink:href="#r"/><use transform="matrix(0.05,0,0,0.05,39.95,0)" xlink:href="#v"/><use transform="matrix(0.05,0,0,0.05,45.900000000000006,0)" xlink:href="#D"/><use transform="matrix(0.05,0,0,0.05,49.85000000000001,0)" xlink:href="#u"/><use transform="matrix(0.05,0,0,0.05,54.85,0)" xlink:href="#y"/></g><path fill="#333" d="M160-131c35 5 61 23 61 61C221 17 115-2 30 0v-248c76 3 177-17 177 60 0 33-19 50-47 57zm-97-11c50-1 110 9 110-42 0-47-63-36-110-37v79zm0 115c55-2 124 14 124-45 0-56-70-42-124-44v89" id="U"/><g id="p"><use transform="matrix(0.05,0,0,0.05,0,0)" xlink:href="#U"/><use transform="matrix(0.05,0,0,0.05,12,0)" xlink:href="#y"/><use transform="matrix(0.05,0,0,0.05,22,0)" xlink:href="#L"/><use transform="matrix(0.05,0,0,0.05,25.950000000000003,0)" xlink:href="#r"/><use transform="matrix(0.05,0,0,0.05,35.95,0)" xlink:href="#t"/><use transform="matrix(0.05,0,0,0.05,45.95,0)" xlink:href="#J"/><use transform="matrix(0.05,0,0,0.05,55.95,0)" xlink:href="#B"/></g></defs></g></svg>